<svg width="35" height="35" viewBox="0 0 35 35" fill="none" xmlns="http://www.w3.org/2000/svg">
<path d="M12.6844 3.33721C13.8594 3.9776 15.3258 3.6659 16.1387 2.60297C16.8246 1.7061 18.1754 1.7061 18.8613 2.60297C19.6742 3.6659 21.1406 3.9776 22.3156 3.33721C23.307 2.79686 24.5409 3.34624 24.8028 4.44457C25.1131 5.74625 26.3259 6.62744 27.6598 6.52032C28.7853 6.42993 29.6891 7.4337 29.4815 8.54357C29.2356 9.85893 29.9851 11.1572 31.2473 11.6019C32.3122 11.9771 32.7296 13.2617 32.0886 14.1912C31.3289 15.2928 31.4856 16.7838 32.4577 17.7033C33.278 18.4793 33.1368 19.8226 32.1731 20.411C31.031 21.1083 30.5678 22.5341 31.0818 23.7696C31.5156 24.8121 30.8402 25.9818 29.7206 26.1274C28.3936 26.3 27.3904 27.4141 27.3575 28.7518C27.3298 29.8806 26.2371 30.6745 25.155 30.3521C23.8725 29.97 22.503 30.5797 21.9288 31.7885C21.4443 32.8084 20.1231 33.0892 19.2657 32.3545C18.2496 31.4838 16.7504 31.4838 15.7343 32.3545C14.8769 33.0892 13.5557 32.8084 13.0712 31.7885C12.497 30.5797 11.1275 29.97 9.84505 30.3521C8.76295 30.6745 7.67021 29.8806 7.64245 28.7518C7.60956 27.4141 6.60642 26.3 5.27944 26.1274C4.15975 25.9818 3.4844 24.8121 3.91816 23.7696C4.43222 22.5341 3.96895 21.1084 2.82688 20.411C1.86321 19.8226 1.72202 18.4793 2.54229 17.7033C3.51442 16.7838 3.67113 15.2928 2.91143 14.1912C2.27041 13.2617 2.6878 11.9771 3.75274 11.6019C5.01486 11.1572 5.76444 9.85893 5.51848 8.54357C5.31095 7.4337 6.21474 6.42993 7.34023 6.52032C8.67409 6.62744 9.88693 5.74625 10.1972 4.44457C10.4591 3.34624 11.693 2.79686 12.6844 3.33721Z" stroke="black"/>
<rect x="15" y="8" width="5" height="13" rx="2" fill="black"/>
<circle cx="17.5" cy="24.5" r="2.5" fill="black"/>
</svg>
