<svg width="19" height="9" viewBox="0 0 19 9" fill="none" xmlns="http://www.w3.org/2000/svg">
<path d="M3.79997 0.700027C4.18759 0.312414 4.81517 0.309638 5.20619 0.693806V0.693806C5.60215 1.08281 5.60497 1.72003 5.21247 2.11253L3.825 3.5L18 3.5C18.5523 3.5 19 3.94772 19 4.5V4.5C19 5.05228 18.5523 5.5 18 5.5L3.825 5.5L5.19513 6.88663C5.58409 7.28028 5.57908 7.91529 5.18432 8.30312V8.30312C4.79204 8.68852 4.16189 8.68515 3.77413 8.29521L0.703172 5.2071C0.314504 4.81626 0.315385 4.18462 0.70514 3.79486L3.79997 0.700027Z"/>
</svg>