<svg width="35" height="34" viewBox="0 0 35 34" fill="none" xmlns="http://www.w3.org/2000/svg">
<path d="M32.4257 11.374C32.2932 9.65123 30.9682 7.44262 29.6432 6.38248C28.1532 5.29755 26.6051 4.29481 25.0058 3.37877C23.4185 2.43784 21.782 1.58262 20.1033 0.816773C19.2066 0.450921 18.245 0.270604 17.2767 0.286705C16.308 0.26635 15.3455 0.446828 14.45 0.816773C12.7716 1.58317 11.1351 2.43837 9.54756 3.37877C6.98591 4.9248 4.91009 6.38248 4.91009 6.38248C3.84887 7.27075 3.0382 8.40733 2.54203 9.67933C2.42044 9.99105 2.66042 10.3136 2.99501 10.3136H4.8147C5.18512 10.3136 5.52002 10.1054 5.72204 9.79491C6.08632 9.23508 6.53544 8.72806 7.05819 8.29351C7.05819 8.29351 8.77215 7.09821 10.8872 5.83046C12.198 5.05934 13.5492 4.35807 14.9351 3.72963C15.6745 3.42627 16.4692 3.27828 17.269 3.29497C18.0685 3.28177 18.8625 3.42963 19.6029 3.72963C20.989 4.35763 22.3402 5.05891 23.6508 5.83046C24.9713 6.58162 26.2496 7.40386 27.4798 8.29351C28.5738 9.16282 29.6679 10.9739 29.7773 12.3865C29.7773 12.3865 30.0325 14.4874 30.069 16.9758C30.0668 18.5126 29.9815 20.0481 29.8137 21.5759C29.5593 23.1755 28.7302 24.6295 27.4798 25.6689C27.4798 25.6689 25.7659 26.9004 23.6508 28.1681C22.34 28.9393 20.9888 29.6405 19.6029 30.269C18.8635 30.5723 18.0688 30.7203 17.269 30.7036C16.4702 30.7203 15.6763 30.5761 14.9351 30.2798C13.549 29.6518 12.1978 28.9506 10.8872 28.179C8.77215 26.9475 7.05819 25.6797 7.05819 25.6797C6.60016 25.3158 6.14212 24.7867 5.75367 24.191C5.55472 23.8859 5.22345 23.685 4.8592 23.685H3.00749C2.66859 23.685 2.42927 24.0148 2.56128 24.327C3.1004 25.6016 4.00525 26.8612 4.91009 27.5852C4.91009 27.5852 6.98591 29.1312 9.54756 30.6331C11.1348 31.574 12.7713 32.4292 14.45 33.1951C15.3477 33.5564 16.3092 33.7322 17.2767 33.7119C18.2454 33.7322 19.2078 33.5518 20.1033 33.1818C21.7818 32.4154 23.4182 31.5602 25.0058 30.6198C27.5674 29.0738 29.6432 27.5719 29.6432 27.5719C31.1576 26.3044 32.1617 24.5312 32.4699 22.5805C32.6731 20.7174 32.7763 18.8447 32.779 16.9706C32.7349 13.9359 32.4257 11.374 32.4257 11.374Z" fill="url(#paint0_linear_117_11286)"/>
<path d="M1.77429 13.3243C1.77429 12.9551 2.07591 12.6558 2.44798 12.6558H12.8901C13.2621 12.6558 13.5638 12.9551 13.5638 13.3243V15.33C13.5638 15.6993 13.2621 15.9986 12.8901 15.9986H1.77429V13.3243Z" fill="#0066B3"/>
<path d="M1.77405 18.0044H22.9951C23.3671 18.0044 23.6688 18.3037 23.6688 18.673V20.6787C23.6688 21.0479 23.3671 21.3472 22.9951 21.3472H2.44773C2.07567 21.3472 1.77405 21.0479 1.77405 20.6787V18.0044Z" fill="#EE2F53"/>
<defs>
<linearGradient id="paint0_linear_117_11286" x1="17.5505" y1="0.285156" x2="17.5505" y2="33.7135" gradientUnits="userSpaceOnUse">
<stop stop-color="#0066B3"/>
<stop offset="0.354167" stop-color="#0066B3"/>
<stop offset="0.6875" stop-color="#EE2F53"/>
<stop offset="1" stop-color="#EE2F53"/>
</linearGradient>
</defs>
</svg>
